HIERARCHY
ROOT Hips
{
	OFFSET 0.000000 0.000000 0.000000
	CHANNELS 6 Xposition Yposition Zposition Xrotation Yrotation Zrotation
	JOINT LeftUpLeg_virtual
	{
		OFFSET 0.000000 0.000000 0.000000
		CHANNELS 3 Xrotation Yrotation Zrotation
		JOINT LeftUpLeg
		{
			OFFSET 15.427100 -6.655098 0.678600
			CHANNELS 3 Xrotation Yrotation Zrotation
			JOINT LeftLeg
			{
				OFFSET 4.081073 -39.591068 13.024000
				CHANNELS 3 Xrotation Yrotation Zrotation
				JOINT LeftFoot
				{
					OFFSET -4.081074 -37.707932 -15.979700
					CHANNELS 3 Xrotation Yrotation Zrotation
					JOINT LeftToeBase
					{
						OFFSET 5.346399 -15.068900 20.645000
						CHANNELS 3 Xrotation Yrotation Zrotation
						JOINT LeftToe_End
						{
							OFFSET 2.754700 0.931300 11.300900
							CHANNELS 3 Xrotation Yrotation Zrotation
							End Site
							{
								OFFSET 0 0 0
							}
						}
					}
				}
			}
		}
	}
	JOINT RightUpLeg_virtual
	{
		OFFSET 0.000000 0.000000 0.000000
		CHANNELS 3 Xrotation Yrotation Zrotation
		JOINT RightUpLeg
		{
			OFFSET -15.569500 -6.655098 0.678600
			CHANNELS 3 Xrotation Yrotation Zrotation
			JOINT RightLeg
			{
				OFFSET -4.081825 -39.591045 13.023800
				CHANNELS 3 Xrotation Yrotation Zrotation
				JOINT RightFoot
				{
					OFFSET 4.081824 -37.707954 -15.979600
					CHANNELS 3 Xrotation Yrotation Zrotation
					JOINT RightToeBase
					{
						OFFSET -5.346400 -15.068900 20.645000
						CHANNELS 3 Xrotation Yrotation Zrotation
						JOINT RightToe_End
						{
							OFFSET -2.754700 0.931300 11.300900
							CHANNELS 3 Xrotation Yrotation Zrotation
							End Site
							{
								OFFSET 0 0 0
							}
						}
					}
				}
			}
		}
	}
	JOINT Spine_virtual
	{
		OFFSET 0.000000 0.000000 0.000000
		CHANNELS 3 Xrotation Yrotation Zrotation
		JOINT Spine
		{
			OFFSET -0.279200 12.230698 -2.892100
			CHANNELS 3 Xrotation Yrotation Zrotation
			JOINT Spine1
			{
				OFFSET -0.232667 10.192268 -1.242267
				CHANNELS 3 Xrotation Yrotation Zrotation
				JOINT Spine1_split
				{
					OFFSET -0.232667 10.192268 -1.242267
					CHANNELS 3 Xrotation Yrotation Zrotation
					JOINT Spine2
					{
						OFFSET -0.232667 10.192268 -1.242267
						CHANNELS 3 Xrotation Yrotation Zrotation
						JOINT Neck_virtual
						{
							OFFSET 0.000000 0.000000 0.000000
							CHANNELS 3 Xrotation Yrotation Zrotation
							JOINT Neck
							{
								OFFSET -0.418800 17.814194 8.416900
								CHANNELS 3 Xrotation Yrotation Zrotation
								JOINT Head
								{
									OFFSET 0.000000 7.031097 3.806800
									CHANNELS 3 Xrotation Yrotation Zrotation
									JOINT HeadTop_End
									{
										OFFSET 0.000000 24.646606 12.978600
										CHANNELS 3 Xrotation Yrotation Zrotation
										End Site
										{
											OFFSET 0 0 0
										}
									}
								}
							}
						}
						JOINT LeftShoulder_virtual
						{
							OFFSET 0.000000 0.000000 0.000000
							CHANNELS 3 Xrotation Yrotation Zrotation
							JOINT LeftShoulder
							{
								OFFSET 8.476499 7.247704 -3.868750
								CHANNELS 3 Xrotation Yrotation Zrotation
								JOINT LeftShoulder_split
								{
									OFFSET 8.476499 7.247704 -3.868750
									CHANNELS 3 Xrotation Yrotation Zrotation
									JOINT LeftArm
									{
										OFFSET 9.308998 -2.777710 0.208600
										CHANNELS 3 Xrotation Yrotation Zrotation
										JOINT LeftForeArm
										{
											OFFSET 29.972298 0.000000 0.000000
											CHANNELS 3 Xrotation Yrotation Zrotation
											JOINT LeftHand
											{
												OFFSET 26.026505 0.000000 0.000000
												CHANNELS 3 Xrotation Yrotation Zrotation
												End Site
												{
													OFFSET 0 0 0
												}
											}
										}
									}
								}
							}
						}
						JOINT RightShoulder_virtual
						{
							OFFSET 0.000000 0.000000 0.000000
							CHANNELS 3 Xrotation Yrotation Zrotation
							JOINT RightShoulder
							{
								OFFSET -7.570500 7.247704 -3.868750
								CHANNELS 3 Xrotation Yrotation Zrotation
								JOINT RightShoulder_split
								{
									OFFSET -7.570500 7.247704 -3.868750
									CHANNELS 3 Xrotation Yrotation Zrotation
									JOINT RightArm
									{
										OFFSET -9.308998 -2.777710 0.208500
										CHANNELS 3 Xrotation Yrotation Zrotation
										JOINT RightForeArm
										{
											OFFSET -29.972300 0.000000 0.000000
											CHANNELS 3 Xrotation Yrotation Zrotation
											JOINT RightHand
											{
												OFFSET -26.026505 0.000000 0.000000
												CHANNELS 3 Xrotation Yrotation Zrotation
												End Site
												{
													OFFSET 0 0 0
												}
											}
										}
									}
								}
							}
						}
					}
				}
			}
		}
	}
}
MOTION
Frames: 5
Frame Time: 0.03333333
4.301681 71.350143 -0.577904 0.000000 0.000000 0.000000 -8.382549 -42.388014 13.760815 -19.093118 30.698299 -1.233218 52.262586 4.306649 6.170842 -24.190368 19.827088 -10.236865 -0.505837 -0.421489 -1.036345 0.000000 0.000000 0.000000 -8.597077 -42.856729 14.445565 -31.533235 8.878128 -40.191545 63.667362 3.809922 -8.455953 -25.884653 -7.435875 22.035567 -1.081807 1.617074 0.739250 0.000000 0.000000 0.000000 -4.021965 -44.581772 15.397359 1.514810 -3.910447 8.440845 -0.997566 -1.435468 5.196734 1.928796 -1.670275 0.610144 0.000000 0.000000 0.000000 -1.086559 -1.783441 4.691415 -10.449841 6.243231 7.124797 -16.795611 39.283048 -4.244919 0.000000 0.000000 0.000000 -1.497210 -1.685870 4.660551 -0.781041 1.388339 11.672413 0.204949 1.666658 1.060280 -35.615120 -30.308920 -44.515481 -6.959667 -81.242313 -4.576974 0.000000 0.000000 0.000000 -1.556764 -1.723914 4.691143 -0.621197 -6.327711 6.850767 1.765458 1.198218 0.920766 137.680932 78.123895 -101.915227 -0.878695 27.387549 0.830457 0.000000 0.000000 0.000000 
4.892820 72.031158 -0.262798 0.000000 0.000000 0.000000 -7.094380 -41.364302 14.711333 -19.542950 29.626075 -2.712992 51.295281 4.135473 5.595240 -24.059307 19.653128 -8.928776 -0.342833 -0.422295 -1.014248 0.000000 0.000000 0.000000 -7.197377 -41.738876 15.454823 -32.606264 8.711041 -40.078314 62.962357 3.576594 -8.463642 -24.889092 -7.438655 22.349685 -1.913548 1.661370 0.748961 0.000000 0.000000 0.000000 -2.604097 -43.757802 16.369590 1.531964 -3.550606 8.284276 -0.933804 -1.225411 5.181950 1.885884 -1.268994 0.405468 0.000000 0.000000 0.000000 -0.991352 -1.542215 4.694195 -10.043008 6.385806 6.039391 -15.605411 38.165202 -5.397455 0.000000 0.000000 0.000000 -1.505168 -1.420308 4.636462 -0.851804 1.763705 11.240722 0.324103 1.509447 0.962134 -35.277657 -30.484104 -44.040722 -9.251700 -84.489215 -6.802031 0.000000 0.000000 0.000000 -1.394953 -1.490540 4.704278 -0.574453 -6.811109 7.423439 1.687076 1.500852 0.440525 138.870054 77.744184 -103.357223 -0.721620 26.383863 0.782830 0.000000 0.000000 0.000000 
5.483538 73.092400 -0.019791 0.000000 0.000000 0.000000 -5.821703 -40.175470 15.567907 -19.845359 28.585382 -4.126781 49.588212 4.066167 5.029414 -23.478442 19.272422 -7.822230 -0.279045 -0.418407 -0.976561 0.000000 0.000000 0.000000 -5.833690 -40.516600 16.370124 -33.903560 8.182885 -39.606044 61.681198 3.342992 -8.493256 -23.653531 -7.026044 22.008213 -2.379044 1.710334 0.816158 0.000000 0.000000 0.000000 -1.274231 -42.713206 17.168220 1.598013 -3.205911 8.158513 -0.830143 -0.994767 5.189210 1.690574 -0.893161 0.267572 0.000000 0.000000 0.000000 -0.806934 -1.283024 4.703187 -9.826363 6.410793 4.987589 -14.725189 36.608912 -6.298070 0.000000 0.000000 0.000000 -1.390598 -1.130989 4.646735 -0.914097 2.099577 10.655249 0.432196 1.520441 0.815647 -34.005289 -30.097912 -43.396911 -19.116561 -87.228366 -16.582519 0.000000 0.000000 0.000000 -1.154936 -1.238931 4.708632 -0.481133 -7.188236 7.601937 1.618252 1.888086 0.159303 139.408833 77.084251 -104.612755 -0.656719 25.009212 0.680996 0.000000 0.000000 0.000000 
6.041260 74.407875 0.108231 0.000000 0.000000 0.000000 -4.649844 -38.927068 16.239157 -20.087728 27.664054 -5.308446 47.413927 4.142732 4.496982 -22.579818 18.729519 -6.865476 -0.240897 -0.406784 -0.921438 0.000000 0.000000 0.000000 -4.603457 -39.295397 17.105649 -35.480364 7.285175 -38.913381 60.026154 3.134243 -8.456934 -22.097694 -6.217685 21.050583 -2.394723 1.776212 0.903863 0.000000 0.000000 0.000000 -0.095248 -41.563692 17.730398 1.758545 -2.835395 8.040241 -0.686408 -0.737767 5.181303 1.528624 -0.703665 0.249878 0.000000 0.000000 0.000000 -0.525060 -0.990102 4.671069 -9.771399 6.324027 4.152850 -14.146847 34.858273 -6.985150 0.000000 0.000000 0.000000 -1.149621 -0.827323 4.654957 -0.972096 2.345117 10.038365 0.615686 1.669259 0.728314 -32.301365 -29.378157 -42.857610 -59.033065 -88.763458 -56.434745 0.000000 0.000000 0.000000 -0.852178 -0.962685 4.675679 -0.360552 -7.419302 7.463142 1.556801 2.295538 0.083464 139.836758 76.096285 -106.130273 -0.675618 23.264586 0.539074 0.000000 0.000000 0.000000 
6.516729 75.777718 0.159718 0.000000 0.000000 0.000000 -3.619488 -37.680139 16.683796 -20.332339 26.896923 -6.154168 45.174789 4.311525 4.064004 -21.599882 18.056005 -6.019821 -0.142624 -0.387198 -0.872296 0.000000 0.000000 0.000000 -3.591299 -38.067895 17.578885 -37.256923 6.093236 -38.163979 58.332384 3.109507 -8.390443 -20.141345 -5.052479 19.922644 -2.387533 1.847135 0.947598 0.000000 0.000000 0.000000 0.793884 -40.360022 18.016702 2.037324 -2.407750 7.898631 -0.490097 -0.455743 5.129037 1.430849 -0.692739 0.395913 0.000000 0.000000 0.000000 -0.156334 -0.678118 4.585825 -9.801953 6.145586 3.698786 -13.764686 33.113847 -7.578541 0.000000 0.000000 0.000000 -0.818042 -0.515308 4.637194 -1.033287 2.409958 9.463375 0.762964 1.900621 0.633605 -30.823988 -28.536361 -42.663790 -105.832518 -88.765207 -103.256150 0.000000 0.000000 0.000000 -0.508137 -0.667941 4.593586 -0.247162 -7.525003 7.120859 1.618973 2.812792 0.179724 140.446994 74.839790 -108.081829 -0.768320 21.326545 0.385815 0.000000 0.000000 0.000000 
